<svg xmlns="http://www.w3.org/2000/svg" viewBox="0 0 760 360" role="img" aria-labelledby="logoTitle logoDesc">
  <title id="logoTitle">HACs Handling Aviation and Cargo Services</title>
  <desc id="logoDesc">Transparent HACs logo with swooshes and aircraft icon</desc>

  <defs>
    <linearGradient id="swooshBlue" x1="0" y1="0" x2="1" y2="1">
      <stop offset="0%" stop-color="#7fd8ff"/>
      <stop offset="100%" stop-color="#1b86d1"/>
    </linearGradient>
    <linearGradient id="swooshGray" x1="0" y1="0" x2="1" y2="1">
      <stop offset="0%" stop-color="#d2d8e2"/>
      <stop offset="100%" stop-color="#8f9eb6"/>
    </linearGradient>
  </defs>

  <path d="M322 32 C255 -6 164 24 90 112 C149 60 225 49 295 74 C322 84 336 58 322 32 Z" fill="url(#swooshGray)" opacity="0.95"/>
  <path d="M62 255 C66 322 141 347 238 316 C164 305 120 267 109 218 C104 196 75 199 62 255 Z" fill="url(#swooshBlue)" opacity="0.98"/>

  <text x="36" y="216" fill="#2e8fda" font-family="Times New Roman, Georgia, serif" font-size="150" letter-spacing="1">HAC</text>
  <text x="342" y="216" fill="#2e8fda" font-family="Times New Roman, Georgia, serif" font-size="116">s</text>

  <g transform="translate(255 226) rotate(-18)">
    <path d="M0 30 L72 18 L128 -10 L143 3 L95 31 L119 60 L105 67 L74 43 L40 55 L34 79 L22 84 L21 58 L0 53 Z" fill="#8f98a8"/>
    <path d="M3 20 Q89 34 145 62" fill="none" stroke="#8f98a8" stroke-width="5" stroke-linecap="round" opacity="0.9"/>
  </g>

  <text x="430" y="229" fill="#bec8d8" font-family="Inter, Arial, sans-serif" font-size="61" font-weight="500">Handling Aviation</text>
  <text x="430" y="292" fill="#bec8d8" font-family="Inter, Arial, sans-serif" font-size="61" font-weight="500">and Cargo Services</text>
</svg>
